<?xml version="1.0" standalone="no"?>
<!DOCTYPE svg PUBLIC "-//W3C//DTD SVG 20010904//EN"
 "http://www.w3.org/TR/2001/REC-SVG-20010904/DTD/svg10.dtd">
<svg version="1.0" xmlns="http://www.w3.org/2000/svg"
 width="300.000000pt" height="300.000000pt" viewBox="0 0 300.000000 300.000000"
 preserveAspectRatio="xMidYMid meet">
<metadata>
Created by potrace 1.10, written by Peter Selinger 2001-2011
</metadata>
<g transform="translate(0.000000,300.000000) scale(0.100000,-0.100000)"
fill="#000000" stroke="none">
<path d="M1193 2258 c-543 -413 -930 -712 -942 -728 -7 -11 -11 -30 -7 -43 4
-16 136 -123 423 -343 615 -470 633 -484 654 -484 10 0 28 9 39 20 19 19 20
33 20 270 l0 250 670 0 c657 0 670 0 690 20 19 19 20 33 20 280 0 247 -1 261
-20 280 -20 20 -33 20 -690 20 l-670 0 0 250 c0 237 -1 251 -20 270 -11 11
-29 20 -39 20 -11 0 -68 -37 -128 -82z m147 -215 c5 -219 7 -243 24 -262 19
-21 21 -21 676 -21 497 0 659 -3 668 -12 17 -17 17 -479 0 -496 -9 -9 -170
-12 -664 -12 -627 0 -653 -1 -675 -19 -24 -19 -24 -22 -29 -262 -4 -209 -7
-244 -20 -247 -12 -2 -161 101 -260 181 -9 6 -51 39 -95 73 -44 34 -103 79
-131 100 -28 21 -162 124 -297 227 -165 126 -247 195 -247 207 0 12 115 107
357 292 607 464 655 499 672 496 14 -3 17 -32 21 -245z"/>
</g>
</svg>
