<?xml version="1.0" standalone="no"?>
<!DOCTYPE svg PUBLIC "-//W3C//DTD SVG 20010904//EN"
 "http://www.w3.org/TR/2001/REC-SVG-20010904/DTD/svg10.dtd">
<svg version="1.0" xmlns="http://www.w3.org/2000/svg"
 width="300.000000pt" height="300.000000pt" viewBox="0 0 300.000000 300.000000"
 preserveAspectRatio="xMidYMid meet">
<metadata>
Created by potrace 1.10, written by Peter Selinger 2001-2011
</metadata>
<g transform="translate(0.000000,300.000000) scale(0.100000,-0.100000)"
fill="#000000" stroke="none">
<path d="M1640 2320 c-19 -19 -20 -33 -20 -270 l0 -250 -670 0 c-657 0 -670 0
-690 -20 -19 -19 -20 -33 -20 -280 0 -247 1 -261 20 -280 20 -20 33 -20 690
-20 l670 0 0 -250 c0 -237 1 -251 20 -270 28 -28 52 -25 102 13 83 63 505 385
748 571 135 103 251 196 259 206 7 11 11 30 7 43 -4 16 -136 123 -423 343
-615 470 -633 484 -654 484 -10 0 -28 -9 -39 -20z m231 -162 c96 -72 219 -166
274 -208 503 -384 565 -434 565 -450 0 -12 -166 -145 -482 -386 -265 -203
-494 -377 -510 -388 -56 -36 -58 -30 -58 227 0 222 -1 236 -21 261 l-20 26
-658 0 c-498 0 -660 3 -669 12 -17 17 -17 479 0 496 9 9 171 12 665 12 l654 0
24 25 25 24 0 234 c0 128 3 237 7 240 15 16 38 1 204 -125z"/>
</g>
</svg>
